<svg xmlns="http://www.w3.org/2000/svg" viewBox="0 0 120 120" width="120" height="120">
  <defs>
    <radialGradient id="seal" cx="50%" cy="40%" r="65%">
      <stop offset="0%" stop-color="#2e2117"/>
      <stop offset="100%" stop-color="#160f0a"/>
    </radialGradient>
  </defs>
  <rect width="120" height="120" rx="20" fill="#1c1410"/>
  <circle cx="60" cy="60" r="52" fill="url(#seal)" stroke="#c9a44c" stroke-width="2.5"/>
  <circle cx="60" cy="60" r="46" fill="none" stroke="#8a7333" stroke-width="1"/>
  <!-- ears -->
  <g fill="none" stroke="#e3c578" stroke-width="3" stroke-linecap="round">
    <path d="M50 44 Q44 18 49 12"/>
    <path d="M70 44 Q76 18 71 12"/>
  </g>
  <!-- head -->
  <ellipse cx="60" cy="62" rx="20" ry="22" fill="none" stroke="#e3c578" stroke-width="3"/>
  <!-- monocle -->
  <circle cx="68" cy="58" r="7.5" fill="none" stroke="#e3c578" stroke-width="2.5"/>
  <line x1="74" y1="63" x2="79" y2="74" stroke="#e3c578" stroke-width="2"/>
  <!-- eyes -->
  <circle cx="52" cy="58" r="2.2" fill="#e3c578"/>
  <circle cx="68" cy="58" r="2.2" fill="#e3c578"/>
  <!-- handlebar mustache -->
  <path d="M60 70 Q52 72 46 68 Q42 65 44 71 Q47 76 54 73 Q58 71 60 73 Q62 71 66 73 Q73 76 76 71 Q78 65 74 68 Q68 72 60 70 Z" fill="#e3c578"/>
  <!-- nose -->
  <circle cx="60" cy="67" r="2" fill="#e3c578"/>
</svg>
